<?xml version="1.0" encoding="UTF-8"?> <!-- Generator: Adobe Illustrator 26.1.0, SVG Export Plug-In . SVG Version: 6.00 Build 0) --> <svg xmlns="http://www.w3.org/2000/svg" xmlns:xlink="http://www.w3.org/1999/xlink" version="1.1" id="Layer_1" x="0px" y="0px" viewBox="0 0 3600 3600" style="enable-background:new 0 0 3600 3600;" xml:space="preserve"> <style type="text/css"> .st0{fill:#EA4435;} .st1{fill:#35A851;} .st2{fill:#557DBF;} .st3{fill:#F9BC16;} .st4{fill:#567EBF;} .st5{fill:#EA4536;} .st6{fill:#F9BC17;} .st7{fill:#36A852;} </style> <path class="st0" d="M1939.28,49.02c4.04,2.1,8.47,1.44,12.74,1.65c135.23,6.51,264.41,37.32,386.57,96.36 c88.48,42.77,168.43,98.03,240.53,164.77c1.46,1.35,3.15,2.44,4.17,3.22c-0.68,4.53-3.49,6.12-5.55,8.17 c-92.73,92.88-185.5,185.71-278.27,278.55c-1.41,1.41-2.85,2.8-4.26,4.22c-1.78,1.77-3.47,1.49-5.19-0.12 c-1.94-1.83-3.93-3.6-5.89-5.4c-79.76-72.92-172.96-118.66-279.34-136.9c-208.02-35.67-415.42,39-554.52,198.98 c-53.49,61.52-93.93,130.63-120.75,207.69c-0.87,2.49-2.01,4.89-3.02,7.33c-0.84-0.53-1.74-0.99-2.52-1.6 c-54.05-41.98-108.07-83.99-162.12-125.97c-57.98-45.03-115.98-90.03-173.98-135.05c0.36-3.08,2.21-5.53,3.56-8.18 c44.42-86.85,99.65-166.22,167.21-236.5C1348.2,173.07,1579.5,66.08,1852.74,50.63c2.91-0.16,6.05,0.56,8.61-1.61 C1887.33,49.02,1913.31,49.02,1939.28,49.02z"></path> <path class="st1" d="M1326.26,1269.22c8.42,20.96,15.68,42.4,25.44,62.82c79.39,166.06,204.81,279.92,381.15,335.42 c62.12,19.55,126.08,26.46,191.18,24.29c72.43-2.41,142.77-14.98,210.67-40.62c36.86-13.92,71.85-31.57,105.08-52.75 c2.8-1.78,5.73-3.36,8.6-5.03c1.72,1.55,3.36,3.2,5.18,4.62c72.65,56.51,145.33,112.98,217.97,169.51 c34.87,27.14,69.66,54.39,104.48,81.59c-21.27,21.18-44.62,39.93-68.58,57.89c-111.23,83.36-235.55,137.51-371.2,166.41 c-51.82,11.04-104.18,17.97-157,21.64c-15.36-0.25-30.7-0.22-45.95,2.02c-20.65,0-41.3,0-61.95,0c-13.93-2.15-27.96-2.24-42-1.95 c-28.52-2.18-56.93-5.32-85.23-9.62c-69.27-10.54-136.82-27.83-202.17-52.99c-223.11-85.92-396.11-231.88-519.76-436.51 c-12.55-20.76-24.76-41.77-34.44-64.1c20.58-15.82,41.23-31.56,61.74-47.49C1141.76,1412.68,1234.01,1340.94,1326.26,1269.22z"></path> <path class="st2" d="M2576.01,1849.06c-34.82-27.2-69.61-54.45-104.48-81.59c-72.64-56.53-145.32-113-217.97-169.51 c-1.82-1.42-3.46-3.07-5.18-4.62c14.96-11.65,30.52-22.5,44.93-34.89c81-69.62,133.46-156.38,156.87-260.69 c0.44-1.94,0.68-3.94,0.91-5.92c0.35-2.96-1.18-4.3-4.01-4.34c-3-0.04-5.99-0.06-8.99-0.06c-174.51,0-349.03,0.01-523.54-0.03 c-15.48,0-13.65,1.95-13.66-13.97c-0.05-119.33-0.04-238.66-0.01-358c0-13.9-1.31-12.5,12.13-12.5 c313.06-0.02,626.12-0.02,939.18-0.02c11.86,0,12.07-0.02,13.83,12.18c4.66,32.29,8.69,64.64,10.92,97.22 c2.14,31.26,3.7,62.52,3.33,93.86c-0.72,61.69-5.47,123.02-15.22,184c-13.1,81.9-34.77,161.33-66.58,237.93 c-40.87,98.43-96.29,187.71-168.01,266.71c-15.24,16.79-31.22,32.83-47.52,48.57C2580.79,1845.49,2578.89,1847.88,2576.01,1849.06z"></path> <path class="st3" d="M987.74,1531.85c-13.01-22.89-23.26-47.09-33.34-71.33c-31.56-75.93-53.29-154.65-65.76-235.91 c-10.29-67.05-13.39-134.55-9.94-202.2c7.19-141.16,42.67-275.04,105.58-401.62c1.02-2.05,2.39-3.92,3.59-5.88 c57.99,45.02,116,90.02,173.98,135.05c54.05,41.98,108.08,83.98,162.12,125.97c0.78,0.61,1.68,1.07,2.52,1.6 c-6.18,21.77-12.87,43.38-17.73,65.52c-13.1,59.65-17.54,119.92-12.48,180.78c3.9,46.96,13.09,92.92,27.9,137.71 c0.83,2.51,1.38,5.12,2.06,7.68c-92.26,71.72-184.5,143.46-276.78,215.14C1028.98,1500.29,1008.33,1516.03,987.74,1531.85z"></path> <g> <path class="st4" d="M779.95,2735.8c61.27,0,122.54,0.05,183.8-0.1c4.63-0.01,7.26,0.7,7.92,5.92 c12.75,100.94,0.1,197.49-58.08,283.01c-55.46,81.54-133.69,131.98-230.87,151.19c-79.84,15.78-159.19,13.19-235.65-16.23 c-147.34-56.7-241.53-161.56-271.62-317.21c-24.27-125.57,9.33-238.77,91.76-336.39c64.81-76.76,147.58-125.23,246.6-142.4 c126.77-21.98,241.64,5.55,340.65,90.34c5.27,4.51,10.27,9.34,15.53,13.86c2.46,2.11,2.46,3.59,0.11,5.92 c-24.66,24.42-49.3,48.86-73.72,73.52c-3.55,3.58-5.16,1.49-7.64-0.76c-43.16-39.07-93.14-64.6-150.93-73.02 c-85.48-12.46-163.9,5.55-232.15,59.46c-66.71,52.7-104.85,122.36-112.11,206.92c-9.93,115.63,31.51,209.65,125.81,278.63 c39.92,29.2,85.4,45.59,134.7,50.87c60.44,6.47,118.86-0.75,173.44-28.62c73.93-37.75,118.4-97.29,130.18-180.14 c1.67-11.76,1.7-11.76-10.03-11.75c-83.1,0.02-166.19,0.06-249.29,0.04c-10.9,0-9.72,1.39-9.73-10.06 c-0.05-31.47,0.26-62.95-0.21-94.41c-0.11-7.56,2.39-8.77,9.23-8.74C658.4,2735.91,719.18,2735.8,779.95,2735.8z"></path> <path class="st4" d="M2689.15,2926.32c0,66.41-0.06,132.82,0.02,199.23c0.05,41.69-1.67,83.16-13.01,123.64 c-16.15,57.67-46.59,105.22-98.29,137.43c-32.75,20.4-68.79,30.97-107.01,35.19c-41.49,4.57-82.24,1.83-121.66-12.27 c-68.45-24.49-116.7-71.17-147.92-136.22c-2.59-5.4-1.29-7.48,4.09-9.67c29.37-11.92,58.64-24.08,87.76-36.56 c5.93-2.54,8.12-1.51,10.99,4.28c22.13,44.55,55.53,76.34,105.88,84.9c45.07,7.66,87.62,0.06,123.09-31.43 c23.2-20.61,34.53-47.85,40.43-77.64c5.14-25.95,4.24-52.25,4.2-78.49c0-1.59,0.72-3.79-1.63-4.37c-3.07-0.76-4.31,1.94-5.9,3.7 c-25.62,28.18-57.86,44.75-94.69,52.25c-57.95,11.8-112.66,0.95-163.16-28.49c-74.77-43.58-119.88-108.92-132.34-194.45 c-20.56-141.1,70.49-264.63,191.52-297.45c56.41-15.3,110.91-10.96,162.35,18.39c13.63,7.78,25.88,17.45,36.4,29.18 c1.65,1.84,3.16,4.36,6.06,2.95c2.54-1.23,1.35-3.99,1.37-6.05c0.12-9.91,0.34-19.84-0.06-29.73c-0.22-5.38,1.08-7.24,6.89-7.19 c32.49,0.3,64.99,0.32,97.48-0.02c6.19-0.06,7.26,2.04,7.25,7.6C2689.1,2758.8,2689.15,2842.56,2689.15,2926.32z M2294.78,2913.82 c0.23,46.56,12.15,83.53,39.07,114.97c60.2,70.31,172.79,70.44,224.81-13.88c37.67-61.06,37.8-125.54,2.97-187.74 c-42.61-76.09-137.26-93.85-205.84-39.95C2313.37,2820.56,2295.48,2866.21,2294.78,2913.82z"></path> <path class="st5" d="M1021.73,2911.13c4.25-151.82,123.97-264.33,277.51-259.41c148.94,4.77,265.03,122.96,257.76,280.31 c-6.8,147.29-126.92,257.52-278.3,252.76C1131.24,3180.15,1017.58,3059.31,1021.73,2911.13z M1440.02,2918.15 c0.15-21.54-3.46-42.37-10.89-62.56c-39.12-106.35-172.9-133.22-249.1-50.02c-57.43,62.7-54.26,171.78,6.72,231.78 c53.67,52.81,137.48,56.96,195.43,8.97C1422.19,3013.19,1439.34,2969.23,1440.02,2918.15z"></path> <path class="st6" d="M2134.98,2918.09c0.01,150.35-116.67,266.75-267.49,266.82c-150.68,0.08-267.2-115.82-267.98-266.56 c-0.78-150.01,116.85-267.15,268.09-266.98C2018.86,2651.56,2134.97,2767.37,2134.98,2918.09z M1861.78,3079.8 c44.99-0.39,79.56-14.36,108.15-42.3c52.19-51.02,63.37-137.71,26.7-204.13c-49.36-89.39-170.61-103.4-239-27.61 c-47.61,52.76-54.93,140.36-16.2,202.32C1770.21,3054.13,1812.36,3077.77,1861.78,3079.8z"></path> <path class="st5" d="M2921.7,2910.74c0.94-65.35,21.84-129.93,72.09-182.96c42.61-44.96,95.39-70.14,157.16-75.17 c99.93-8.14,173.44,35.13,226.15,117.84c15.26,23.95,24.78,50.55,35.51,76.59c2.2,5.33-1.74,5.66-4.76,6.91 c-39.07,16.18-78.15,32.35-117.23,48.51c-75.87,31.38-151.73,62.78-227.66,94.02c-4.54,1.87-5.3,3.38-2.86,7.85 c31.71,58.12,82.53,80.53,144.88,74.29c46.5-4.66,81.36-29.02,108.08-66c4.33-5.99,6.79-5.88,12.43-2.01 c25.95,17.76,52.17,35.12,78.49,52.33c4.49,2.93,4.59,4.83,1.49,8.95c-59.91,79.67-139.22,119.14-239.19,111.6 c-99.61-7.51-172.84-56.75-217.88-146.23C2929.51,2999.71,2921.82,2959.29,2921.7,2910.74z M3038.23,2909.04 c0.81,0.14,1.1,0.29,1.29,0.21c77.69-32.14,155.37-64.31,233.09-96.4c3.46-1.43,3.67-3.01,2.11-6.1 c-3.72-7.35-8.12-14.21-14.02-19.97c-28.01-27.35-62.45-36.5-99.92-30.68C3086.57,2767.63,3034.07,2834.14,3038.23,2909.04z"></path> <path class="st7" d="M2872.59,2777.54c0,127.59-0.06,255.18,0.16,382.76c0.01,6.86-1.8,8.51-8.52,8.44 c-33.23-0.36-66.46-0.28-99.69-0.04c-5.21,0.04-6.55-1.31-6.55-6.53c0.13-256.17,0.14-512.33-0.01-768.5 c0-5.51,1.28-7.06,6.92-7.01c33.23,0.28,66.46,0.34,99.69-0.03c6.58-0.07,8.16,1.56,8.15,8.14 C2872.53,2522.37,2872.59,2649.95,2872.59,2777.54z"></path> </g> </svg> 